# xmcd CD database file
#
# Track frame offsets:
#	150
#	16430
#	42150
#
# Disc length: 921 seconds
#
# Revision: 2
# Processed by: cddbd v1.5.1PL0 Copyright (c) Steve Scherf et al.
# Submitted via: CDex 1.51
#
DISCID=1b039703
DTITLE=Aroma - Hand In Hand
DYEAR=2000
DGENRE=Dance
TTITLE0=Hand In Hand (Radio Edit)
TTITLE1=Hand In Hand (Darwich's Cherry Mix)
TTITLE2=Hand In Hand (Garcias Great Dane Remix)
EXTD=YEAR: 2000
EXTT0=
EXTT1=
EXTT2=
PLAYORDER=
